# Blender 5.0.0
# www.blender.org
mtllib Gun.mtl
o Cube.007_Cube.012
v -0.023231 0.412005 0.086095
v -0.023297 0.412006 0.135456
v -0.016935 0.173297 0.062393
v -0.024972 0.173354 0.135456
v -0.023679 0.347678 0.083955
v -0.023749 0.347678 0.135456
v -0.015882 0.324023 0.065700
v -0.023914 0.324080 0.135456
v -0.024861 0.173353 0.052431
v -0.026543 -0.061519 0.077966
v -0.026465 -0.039435 0.135456
v -0.024838 0.161850 -0.024060
v -0.027291 -0.187583 -0.024060
v -0.024882 0.163001 0.014186
v -0.027226 -0.165959 0.040411
v -0.025283 0.114612 0.060292
v -0.025393 0.113326 0.135456
v -0.025170 0.112774 -0.033705
v -0.025234 0.113584 0.018563
v -0.026055 0.006802 0.071326
v -0.026032 -0.007987 -0.022540
v -0.026047 -0.000723 0.026244
v -0.026095 0.013409 0.135456
v -0.025771 0.059590 0.135456
v -0.025720 0.053568 0.066171
v -0.025641 0.048892 -0.016744
v -0.025691 0.049282 0.022643
v -0.025536 0.093012 0.135456
v -0.025445 0.092008 0.062239
v -0.025333 0.089649 -0.033331
v -0.025395 0.090926 0.019849
v -0.027391 -0.209267 -0.063047
v -0.026093 -0.025824 -0.070275
v -0.027453 -0.222590 -0.086288
v -0.026176 -0.040319 -0.084768
v -0.026210 -0.014941 0.072999
v -0.026186 -0.029952 -0.023300
v -0.026208 -0.023498 0.027261
v -0.026215 -0.003771 0.135456
v -0.026216 -0.042769 -0.067854
v -0.027352 -0.200811 -0.047927
v -0.026091 -0.020898 -0.046407
v -0.026216 -0.038914 -0.047167
v -0.026615 -0.231706 -0.111817
v -0.025560 -0.077986 -0.094587
v -0.026634 -0.242660 -0.156603
v -0.025640 -0.103593 -0.170241
v -0.027373 -0.242645 -0.250055
v -0.027058 -0.257742 -0.231434
v -0.025995 -0.117335 -0.230147
v -0.026667 -0.141754 -0.248956
v -0.042810 0.123520 0.020244
v -0.042944 0.123521 0.119273
v -0.043636 0.005853 0.020244
v -0.043769 0.005854 0.119273
v -0.056844 0.123619 0.069741
v -0.057669 0.005952 0.069741
v -0.006102 0.112641 -0.028928
v -0.006265 0.089515 -0.028554
v -0.006326 0.064797 -0.111783
v -0.006378 0.059767 -0.099207
v -0.006196 0.090982 -0.071799
v -0.006107 0.102763 -0.076541
v -0.007037 -0.032314 -0.089953
v -0.006987 -0.022957 -0.078629
v -0.006692 0.013991 -0.104945
v -0.006684 0.012790 -0.116895
v -0.007129 -0.039934 -0.061122
v -0.007212 -0.054430 -0.075615
v -0.002623 -0.001974 -0.037357
v -0.002386 0.033954 -0.026119
v -0.002408 0.023205 -0.065549
v -0.002491 0.015833 -0.042514
v -0.002363 0.030701 -0.060312
v -0.002399 0.029402 -0.040270
v -0.002301 0.035400 -0.081891
v -0.002766 -0.018959 -0.019105
v -0.002391 0.035734 -0.012520
v -0.002168 0.052609 -0.090993
v -0.002149 0.057097 -0.081452
v -0.002268 0.041393 -0.074504
v -0.003286 0.407932 0.131421
v -0.003328 0.405640 0.150809
v -0.003596 0.363713 0.131421
v -0.003605 0.363713 0.138011
v -0.003422 0.388497 0.131421
v -0.003442 0.389261 0.150236
v 0.028780 0.411640 0.086165
v 0.028713 0.411641 0.135526
v 0.019198 0.173044 0.062441
v 0.027039 0.172988 0.135526
v 0.028331 0.347313 0.084025
v 0.028262 0.347313 0.135526
v 0.020251 0.323770 0.065748
v 0.028096 0.323715 0.135526
v 0.027150 0.172988 0.052501
v 0.025467 -0.061884 0.078036
v 0.025545 -0.039800 0.135526
v 0.027172 0.161485 -0.023990
v 0.024720 -0.187948 -0.023990
v 0.027129 0.162636 0.014256
v 0.024785 -0.166324 0.040481
v 0.026727 0.114247 0.060362
v 0.026617 0.112961 0.135526
v 0.026841 0.112409 -0.033635
v 0.026776 0.113219 0.018633
v 0.025956 0.006437 0.071396
v 0.025978 -0.008352 -0.022470
v 0.025964 -0.001088 0.026314
v 0.025916 0.013044 0.135526
v 0.026240 0.059225 0.135526
v 0.026291 0.053203 0.066241
v 0.026370 0.048527 -0.016674
v 0.026319 0.048917 0.022713
v 0.026475 0.092647 0.135526
v 0.026566 0.091643 0.062309
v 0.026678 0.089284 -0.033261
v 0.026615 0.090561 0.019919
v 0.024620 -0.209632 -0.062977
v 0.025917 -0.026189 -0.070205
v 0.024558 -0.222955 -0.086218
v 0.025835 -0.040684 -0.084698
v 0.025801 -0.015306 0.073069
v 0.025825 -0.030317 -0.023230
v 0.025802 -0.023863 0.027331
v 0.025796 -0.004136 0.135526
v 0.025795 -0.043134 -0.067784
v 0.024659 -0.201176 -0.047857
v 0.025920 -0.021263 -0.046337
v 0.025794 -0.039279 -0.047097
v 0.023661 -0.232059 -0.111749
v 0.024717 -0.078338 -0.094519
v 0.023647 -0.243013 -0.156535
v 0.024641 -0.103945 -0.170173
v 0.024637 -0.243010 -0.249985
v 0.024060 -0.258101 -0.231365
v 0.024964 -0.117693 -0.230079
v 0.025344 -0.142119 -0.248886
v 0.002783 0.411823 0.079410
v 0.002697 0.411823 0.143569
v 0.001164 0.176540 0.055696
v 0.001022 0.173171 0.143569
v 0.002246 0.347496 0.143569
v 0.002335 0.347495 0.077270
v 0.002080 0.323897 0.143569
v 0.002194 0.323897 0.059003
v 0.001168 0.176540 0.052466
v -0.000578 -0.067431 0.078001
v -0.000511 -0.045346 0.143569
v 0.001194 0.165037 -0.026728
v -0.001326 -0.193494 -0.024025
v -0.001261 -0.171869 0.040446
v 0.001147 0.166187 0.014221
v 0.000839 0.112592 -0.036373
v 0.000601 0.113144 0.143569
v -0.000023 -0.008169 -0.025208
v -0.000100 0.013227 0.143569
v 0.000224 0.059408 0.143569
v 0.000368 0.048710 -0.019412
v 0.000676 0.089466 -0.035999
v 0.000459 0.092830 0.143569
v -0.001425 -0.215178 -0.063012
v -0.000088 -0.026006 -0.070240
v -0.001488 -0.228501 -0.086253
v -0.000170 -0.040502 -0.084733
v -0.000210 -0.002364 0.143569
v -0.000086 -0.021081 -0.046372
v -0.001386 -0.206721 -0.047892
v -0.000400 -0.075047 -0.094553
v -0.001517 -0.237611 -0.111783
v -0.000478 -0.100653 -0.170207
v -0.001534 -0.248565 -0.156569
v -0.001404 -0.248556 -0.253036
v -0.001539 -0.263651 -0.231400
v -0.000636 -0.138821 -0.251936
v -0.000494 -0.114399 -0.230113
v 0.044485 0.122908 0.020362
v 0.044352 0.122909 0.119391
v 0.043660 0.005241 0.020362
v 0.043526 0.005242 0.119391
v 0.058385 0.122810 0.069895
v 0.057560 0.005143 0.069895
v 0.007760 0.112543 -0.028910
v 0.007597 0.089418 -0.028536
v 0.007535 0.064700 -0.111765
v 0.007483 0.059670 -0.099189
v 0.007665 0.090884 -0.071781
v 0.007755 0.102666 -0.076523
v 0.006825 -0.032412 -0.089935
v 0.006875 -0.023054 -0.078611
v 0.007170 0.013894 -0.104927
v 0.007177 0.012693 -0.116877
v 0.006732 -0.040031 -0.061104
v 0.006650 -0.054527 -0.075597
v 0.000842 0.114454 -0.028919
v 0.000607 0.064748 -0.113682
v 0.000839 0.104577 -0.078440
v -0.000104 -0.032363 -0.091851
v 0.000249 0.012742 -0.118794
v -0.000277 -0.054478 -0.078232
v 0.000654 0.087748 -0.028545
v 0.000549 0.059719 -0.096855
v 0.000719 0.089214 -0.069448
v -0.000059 -0.023005 -0.076277
v 0.000236 0.013943 -0.102594
v -0.000172 -0.036167 -0.061113
v 0.002686 0.407890 0.131429
v 0.002695 -0.002011 -0.037349
v 0.002932 0.033916 -0.026111
v 0.002910 0.023168 -0.065541
v 0.002827 0.015796 -0.042506
v 0.002955 0.030664 -0.060304
v 0.002919 0.029364 -0.040262
v 0.003017 0.035363 -0.081884
v 0.002551 -0.018996 -0.019097
v 0.002926 0.035696 -0.012512
v 0.003150 0.052571 -0.090986
v 0.003169 0.057060 -0.081445
v 0.003049 0.041356 -0.074496
v 0.000855 0.123214 0.007244
v 0.000687 0.123215 0.132392
v 0.000029 0.005547 0.007244
v -0.000139 0.005548 0.132392
v 0.008658 0.407848 0.131437
v 0.008616 0.405557 0.150825
v 0.008347 0.363629 0.131437
v 0.008339 0.363629 0.138027
v 0.008521 0.388413 0.131437
v 0.008501 0.389177 0.150252
v -0.000055 0.005548 0.069818
v 0.000771 0.123215 0.069818
v -0.002821 -0.074353 0.058626
v -0.002914 -0.084199 0.076835
v -0.002877 -0.084850 0.045964
v -0.003033 -0.103150 0.066512
v -0.002778 -0.058866 0.107596
v -0.002648 -0.042411 0.097159
v -0.002751 -0.051799 0.124357
v -0.002555 -0.025099 0.118044
v -0.002691 -0.050393 0.087529
v -0.002764 -0.063857 0.071288
v -0.002997 -0.091120 0.102243
v -0.003120 -0.107612 0.107701
v -0.003113 -0.104507 0.118707
v -0.002878 -0.077183 0.086835
v -0.002853 -0.071095 0.099869
v -0.002981 -0.086873 0.112861
v 0.003608 -0.084244 0.076844
v 0.003701 -0.074399 0.058635
v 0.003645 -0.084896 0.045973
v 0.003643 -0.077228 0.086844
v 0.003488 -0.103196 0.066521
v 0.003758 -0.063903 0.071297
v 0.003967 -0.025144 0.118053
v 0.003874 -0.042457 0.097168
v 0.003771 -0.051845 0.124366
v 0.003744 -0.058912 0.107605
v 0.003669 -0.071141 0.099878
v 0.003830 -0.050439 0.087538
v 0.003540 -0.086919 0.112870
v 0.003525 -0.091166 0.102252
v 0.003402 -0.107658 0.107710
v 0.003409 -0.104553 0.118716
vn -0.8138 -0.0388 0.5799
vn -0.6331 0.6038 -0.4844
vn -0.8577 0.0845 -0.5072
vn 0.0064 0.7967 -0.6043
vn -0.7095 0.2204 -0.6694
vn 0.0034 0.3012 -0.9536
vn 0.0035 0.6460 0.7633
vn -0.0013 -0.0000 1.0000
vn -0.8295 -0.0392 0.5571
vn 0.0057 0.6672 -0.7449
vn -0.8214 0.0279 0.5697
vn -0.4514 0.8517 -0.2662
vn 0.0036 0.3380 -0.9411
vn -1.0000 0.0070 -0.0013
vn -0.7255 -0.3947 0.5638
vn -0.8060 0.0057 0.5919
vn -0.0057 -0.6739 0.7388
vn -0.8633 -0.3678 0.3458
vn -0.0052 -0.5784 0.8157
vn -0.0068 -0.8736 0.4866
vn -0.7761 -0.5479 0.3120
vn -0.0068 -0.8700 0.4931
vn -0.0061 -0.7416 0.6708
vn -0.7965 -0.5541 0.2421
vn -0.0070 -0.9131 0.4077
vn -0.6433 0.5828 -0.4965
vn -0.7217 0.0647 -0.6892
vn -0.7712 0.6298 -0.0927
vn -0.6803 -0.4983 0.5375
vn -0.7047 -0.1387 -0.6958
vn -0.8060 0.0057 0.5920
vn -0.8438 0.2888 -0.4523
vn -0.7966 -0.0789 -0.5994
vn -0.6427 0.6750 -0.3624
vn -0.7683 -0.5874 0.2542
vn -0.0069 -0.9111 0.4122
vn -0.6533 0.3827 -0.6532
vn -0.7757 -0.5506 0.3084
vn -0.7412 0.6280 -0.2370
vn -0.6907 0.2438 -0.6808
vn -0.6930 -0.2860 -0.6617
vn -0.7795 -0.6105 0.1403
vn -0.0071 -0.9760 0.2175
vn -0.7115 -0.6837 -0.1625
vn -0.0066 -0.9782 -0.2075
vn -0.8340 0.3746 -0.4052
vn -0.7722 -0.6115 0.1726
vn -0.0071 -0.9589 0.2837
vn -0.7533 0.6339 -0.1751
vn 0.0071 0.9961 -0.0882
vn -0.7110 0.6989 -0.0772
vn 0.0038 0.3594 -0.9332
vn -0.6803 0.6223 -0.3873
vn 0.0067 0.8589 -0.5121
vn -0.0022 -0.4776 -0.8786
vn -0.0001 -0.1976 -0.9803
vn 0.0071 0.9618 -0.2735
vn 0.0057 0.6645 -0.7472
vn 0.0050 0.5585 -0.8295
vn 0.0068 0.8802 -0.4746
vn 0.0070 0.9351 -0.3542
vn 0.0003 -0.1443 -0.9895
vn 0.0019 0.0851 -0.9964
vn 0.0071 0.9890 -0.1477
vn -0.5681 -0.6091 0.5534
vn -0.7547 0.6561 -0.0010
vn -0.7638 -0.6455 -0.0010
vn -0.0035 -0.6479 -0.7617
vn -0.5580 0.6170 -0.5550
vn 0.0056 0.6479 -0.7617
vn 0.0035 0.6479 0.7617
vn -0.0056 -0.6479 0.7617
vn -0.5666 -0.6091 -0.5550
vn -0.8925 -0.4046 0.1992
vn -0.0043 -0.4386 0.8987
vn -0.0071 -0.9411 0.3381
vn 0.0006 0.2642 0.9645
vn -0.8154 0.3801 0.4366
vn 0.0037 0.6711 0.7414
vn -0.7452 0.2862 -0.6023
vn -0.8692 -0.1891 0.4568
vn -0.7575 0.6397 -0.1300
vn -0.7811 -0.6240 -0.0231
vn -0.0070 -0.9994 -0.0350
vn -0.8769 0.1160 0.4665
vn -0.7887 -0.3180 -0.5262
vn -0.7376 -0.1506 -0.6583
vn -0.8524 0.3877 0.3509
vn -0.7946 -0.3199 -0.5161
vn 0.0042 0.7350 0.6781
vn -0.0026 -0.5343 -0.8453
vn -0.0025 -0.5226 -0.8526
vn 0.0039 0.3836 -0.9235
vn 0.0071 0.9799 -0.1993
vn -0.7452 0.5864 -0.3175
vn 0.0067 0.8585 -0.5128
vn -0.6437 0.5994 0.4758
vn -0.0070 -1.0000 -0.0000
vn 0.0070 1.0000 -0.0000
vn -0.5595 0.6170 0.5535
vn -0.7916 -0.2597 0.5532
vn -0.6661 -0.1735 0.7254
vn -0.5789 0.5336 0.6165
vn -0.6741 0.7337 0.0853
vn 0.6428 0.5948 -0.4827
vn 0.8116 -0.0502 0.5821
vn 0.8601 0.0724 -0.5049
vn 0.7143 0.2104 -0.6675
vn 0.8274 -0.0508 0.5593
vn 0.8202 0.0164 0.5719
vn 0.4640 0.8453 -0.2650
vn 0.7183 -0.4049 0.5658
vn 1.0000 -0.0070 0.0013
vn 0.8044 -0.0056 0.5941
vn 0.7675 -0.5588 0.3141
vn 0.7671 -0.5614 0.3105
vn 0.7880 -0.5652 0.2442
vn 0.6718 -0.5078 0.5393
vn 0.6528 0.5737 -0.4947
vn 0.7805 0.6186 -0.0904
vn 0.7210 0.6889 -0.0752
vn 0.8571 -0.3798 0.3481
vn 0.7046 -0.1486 -0.6939
vn 0.8490 0.2770 -0.4501
vn 0.7970 -0.0901 -0.5973
vn 0.6530 0.6659 -0.3606
vn 0.7506 0.6175 -0.2350
vn 0.7593 -0.5982 0.2562
vn 0.6605 0.3735 -0.6514
vn 0.6959 0.2340 -0.6790
vn 0.6900 0.6127 -0.3855
vn 0.7623 0.6236 -0.1732
vn 0.7023 -0.6936 -0.1606
vn 0.7705 -0.6213 0.1424
vn 0.8402 0.3628 -0.4030
vn 0.7630 -0.6223 0.1747
vn 0.6907 -0.2958 -0.6599
vn 0.7244 0.0545 -0.6872
vn 0.0047 0.5015 -0.8651
vn 0.0062 0.7619 -0.6477
vn 0.7638 0.6455 0.0010
vn 0.5580 -0.6170 0.5550
vn 0.7547 -0.6561 0.0010
vn 0.5681 0.6091 -0.5534
vn 0.5595 -0.6170 -0.5535
vn 0.8862 -0.4171 0.2016
vn 0.8195 0.3687 0.4388
vn 0.8772 0.1037 0.4689
vn 0.7507 0.2756 -0.6004
vn 0.7542 0.5759 -0.3155
vn 0.7668 0.6290 -0.1280
vn 0.7723 -0.6349 -0.0210
vn 0.7856 -0.3290 -0.5240
vn 0.7371 -0.1610 -0.6563
vn 0.8653 -0.2013 0.4591
vn 0.8568 0.3757 0.3533
vn -0.0001 -0.2080 -0.9781
vn 0.6507 0.5903 0.4776
vn 0.5666 0.6091 0.5550
vn 0.7864 -0.2707 0.5553
vn 0.5847 0.5255 0.6181
vn 0.6841 0.7242 0.0871
vn -0.7659 -0.4258 0.4818
vn -0.8806 -0.4728 -0.0308
vn -0.5722 -0.8080 0.1405
vn -0.5902 -0.3625 0.7213
vn -0.7850 -0.4708 0.4027
vn -0.8657 0.0375 0.4991
vn -0.7710 -0.3434 -0.5363
vn -0.6664 0.3643 0.6505
vn -0.5787 -0.3794 0.7219
vn 0.7585 -0.4365 0.4839
vn 0.5604 -0.8160 0.1420
vn 0.6673 -0.5587 -0.4925
vn 0.5831 -0.3707 0.7229
vn 0.7772 -0.4817 0.4048
vn 0.8648 0.0253 0.5015
vn 0.7675 -0.3542 -0.5343
vn 0.8740 -0.4851 -0.0284
vn 0.5714 -0.3875 0.7235
vn 0.6697 0.3550 0.6523
vn -0.5771 0.1919 0.7938
vn -0.5843 -0.7156 -0.3829
vn 0.5752 -0.7237 -0.3813
vn -0.6738 -0.5493 -0.4943
vn 0.0068 0.9931 0.1174
vn 0.6616 -0.1829 0.7272
vn 0.7914 -0.3311 -0.5139
vn 0.5776 0.1838 0.7954
vn 0.6676 -0.6633 -0.3381
vn -0.8319 -0.3834 -0.4013
vn -0.6760 -0.6539 -0.3399
vn 0.8275 -0.3950 -0.3991
vn -0.6537 -0.3929 -0.6468
vn 0.6498 -0.4020 -0.6451
vn -0.5176 -0.6243 -0.5851
vn 0.6581 -0.4928 -0.5692
vn -0.6635 -0.4835 -0.5710
vn 0.6490 0.7543 -0.0985
vn -0.6821 0.7135 -0.1599
vn -0.6381 0.7634 -0.1002
vn 0.6925 0.7039 -0.1581
vn -0.7470 0.6598 -0.0821
vn -0.7737 0.5949 0.2176
vn 0.7814 0.5840 0.2197
vn -0.7662 0.4033 0.5003
vn 0.7564 0.6492 -0.0801
vn 0.5811 0.7617 0.2866
vn -0.5721 0.2631 -0.7769
vn -0.5712 0.7698 0.2850
vn 0.5778 0.2551 -0.7753
vn 0.7705 0.3925 0.5024
vn 0.5103 -0.6315 -0.5837
vt 0.093132 0.891278
vt 0.014252 0.807110
vt 0.100041 0.797511
vt 0.364573 0.726274
vt 0.130823 0.745304
vt 0.130823 0.730374
vt 0.013624 0.910483
vt 0.093132 0.909223
vt 0.123913 0.891278
vt 0.123913 0.909223
vt 0.014252 0.792180
vt 0.365737 0.885755
vt 0.368968 0.741204
vt 0.365737 0.903700
vt 0.100041 0.782581
vt 0.652795 0.763313
vt 0.668291 0.896674
vt 0.636212 0.887046
vt 0.721020 0.777424
vt 0.713548 0.777424
vt 0.636151 0.923080
vt 0.675763 0.914620
vt 0.908242 0.496535
vt 0.911800 0.462946
vt 0.919272 0.462946
vt 0.857244 0.693996
vt 0.883517 0.549555
vt 0.890989 0.549555
vt 0.455239 0.645462
vt 0.383970 0.549177
vt 0.454301 0.539349
vt 0.453899 0.738161
vt 0.382470 0.634138
vt 0.849772 0.693996
vt 0.484792 0.648319
vt 0.483383 0.742487
vt 0.488025 0.551166
vt 0.455578 0.923080
vt 0.458569 0.883600
vt 0.663954 0.664783
vt 0.640556 0.552931
vt 0.672372 0.552464
vt 0.634249 0.662525
vt 0.553567 0.887046
vt 0.615817 0.923080
vt 0.555581 0.923080
vt 0.563435 0.748145
vt 0.613803 0.887046
vt 0.485064 0.883600
vt 0.482073 0.923080
vt 0.568346 0.567029
vt 0.624434 0.759596
vt 0.569026 0.654525
vt 0.684061 0.499444
vt 0.663821 0.446890
vt 0.689090 0.453489
vt 0.936300 0.410098
vt 0.943772 0.410098
vt 0.685894 0.415915
vt 0.900770 0.496535
vt 0.657398 0.499911
vt 0.834026 0.038969
vt 0.972606 0.041914
vt 0.970383 0.257554
vt 0.977855 0.257554
vt 0.992294 0.083278
vt 0.999766 0.083278
vt 0.749261 0.385555
vt 0.948182 0.353382
vt 0.955654 0.353382
vt 0.777911 0.224817
vt 0.364573 0.719099
vt 0.368968 0.719099
vt 0.829962 0.032270
vt 0.802171 0.080749
vt 0.798108 0.080749
vt 0.980078 0.035215
vt 0.488025 0.545162
vt 0.773848 0.224817
vt 0.745198 0.385555
vt 0.640556 0.546926
vt 0.568346 0.561024
vt 0.454301 0.533344
vt 0.378075 0.634138
vt 0.613720 0.808891
vt 0.440646 0.754316
vt 0.613720 0.754316
vt 0.613720 0.649246
vt 0.440646 0.699742
vt 0.440646 0.649246
vt 0.440646 0.859387
vt 0.613720 0.859387
vt 0.613720 0.699742
vt 0.476962 0.427583
vt 0.531947 0.366684
vt 0.478399 0.431249
vt 0.602471 0.350988
vt 0.647411 0.392477
vt 0.647411 0.396143
vt 0.530511 0.348523
vt 0.531947 0.363017
vt 0.461623 0.495291
vt 0.475220 0.494655
vt 0.476658 0.494655
vt 0.602471 0.347322
vt 0.654445 0.377501
vt 0.603277 0.330450
vt 0.660815 0.422623
vt 0.672935 0.399941
vt 0.657624 0.422623
vt 0.672935 0.395832
vt 0.654445 0.374515
vt 0.530511 0.345537
vt 0.460065 0.495291
vt 0.470475 0.421382
vt 0.468917 0.418396
vt 0.121459 0.281800
vt 0.075377 0.127519
vt 0.121459 0.146008
vt 0.615578 0.166667
vt 0.682490 0.063517
vt 0.705106 0.170701
vt 0.684316 0.275930
vt 0.616732 0.300885
vt 0.347019 0.065475
vt 0.403894 0.160023
vt 0.403894 0.040537
vt 0.347019 0.254571
vt 0.321110 0.160023
vt 0.043965 0.901269
vt 0.075013 0.915231
vt 0.043008 0.941127
vt 0.021697 0.941120
vt 0.019617 0.901269
vt 0.379576 0.543172
vt 0.603277 0.327464
vt 0.546840 0.057404
vt 0.614424 0.032448
vt 0.548666 0.269816
vt 0.075013 0.901269
vt 0.706336 0.779476
vt 0.736175 0.783431
vt 0.730042 0.801624
vt 0.723030 0.758279
vt 0.759092 0.764697
vt 0.687161 0.868310
vt 0.672230 0.822782
vt 0.698400 0.840253
vt 0.684925 0.806662
vt 0.720361 0.823442
vt 0.749697 0.831293
vt 0.742941 0.849067
vt 0.769396 0.864540
vt 0.739723 0.737083
vt 0.644697 0.857742
vt 0.773745 0.848308
vt 0.000000 0.000000
vt 0.013624 0.892538
vt 0.440646 0.808891
vt 0.075377 0.304023
vt 0.403894 0.279509
vt 0.526050 0.162632
vt 0.522531 0.658250
vt 0.548187 0.658250
vt 0.567853 0.658250
vt 0.594302 0.658250
vt 0.500899 0.658250
vt 0.370306 0.658250
vt 0.384855 0.658250
vt 0.400624 0.658250
vt 0.407526 0.702933
vt 0.407092 0.727531
vt 0.394652 0.719909
vt 0.421930 0.658250
vt 0.440778 0.658250
vt 0.464043 0.658250
vt 0.475228 0.658250
vt 0.381176 0.728097
vt 0.408838 0.658679
vt 0.408805 0.684128
vt 0.398614 0.663214
vt 0.417792 0.744031
vt 0.370306 0.737768
vt 0.417174 0.703938
vt 0.418741 0.682363
vt 0.418741 0.770463
s 1
usemtl Gun
f 6/1/1 1/2/2 5/3/3
f 141/4/4 7/5/5 146/6/6
f 140/7/7 6/1/1 143/8/8
f 143/8/8 8/9/9 145/10/8
f 139/11/10 5/3/3 1/2/2
f 8/9/9 5/3/3 7/5/5
f 4/12/11 7/5/5 3/13/12
f 145/10/8 4/12/11 142/14/8
f 144/15/13 7/5/5 5/3/3
f 36/16/14 11/17/15 39/18/16
f 148/19/17 11/17/15 10/20/18
f 166/21/8 11/17/15 149/22/19
f 168/23/20 32/24/21 162/25/22
f 152/26/23 13/27/24 151/28/25
f 19/29/14 12/30/26 18/31/27
f 16/32/14 14/33/28 19/29/14
f 148/19/17 15/34/29 152/26/23
f 16/32/14 31/35/14 29/36/14
f 19/29/14 30/37/30 31/35/14
f 4/12/11 155/38/8 142/14/8
f 4/12/11 16/32/14 17/39/31
f 38/40/14 21/41/32 37/42/14
f 36/16/14 22/43/14 38/40/14
f 24/44/16 157/45/8 158/46/8
f 25/47/14 23/48/16 24/44/16
f 28/49/31 25/47/14 24/44/16
f 28/49/31 158/46/8 161/50/8
f 22/43/14 26/51/33 21/41/32
f 20/52/14 27/53/14 22/43/14
f 17/39/31 161/50/8 155/38/8
f 17/39/31 29/36/14 28/49/31
f 31/35/14 26/51/33 27/53/14
f 29/36/14 27/53/14 25/47/14
f 43/54/14 33/55/34 40/56/14
f 162/25/22 34/57/35 164/58/36
f 40/56/14 33/55/34 35/59/37
f 32/24/21 35/59/37 34/57/35
f 41/60/38 40/56/14 32/24/21
f 10/20/18 38/40/14 15/34/29
f 15/34/29 37/42/14 13/27/24
f 23/48/16 166/21/8 157/45/8
f 20/52/14 39/18/16 23/48/16
f 13/27/24 43/54/14 41/60/38
f 37/42/14 42/61/39 43/54/14
f 151/28/25 41/60/38 168/23/20
f 51/62/40 48/63/41 46/64/42
f 172/65/43 49/66/44 174/67/45
f 34/57/35 45/68/46 44/69/47
f 164/58/36 44/69/47 170/70/48
f 44/69/47 47/71/49 46/64/42
f 170/70/48 46/64/42 172/65/43
f 147/72/50 3/13/12 141/4/4
f 3/13/12 9/73/51 4/12/11
f 175/74/52 50/75/53 176/76/54
f 175/74/52 48/63/41 51/62/40
f 173/77/55 49/66/44 48/63/41
f 18/31/27 160/78/56 30/37/30
f 45/68/46 171/79/57 47/71/49
f 35/59/37 169/80/58 45/68/46
f 47/71/49 176/76/54 50/75/53
f 156/81/59 42/61/39 21/41/32
f 163/55/60 35/59/37 33/55/34
f 167/61/61 33/55/34 42/61/39
f 30/37/30 159/82/62 26/51/33
f 159/82/62 21/41/32 26/51/33
f 12/30/26 154/83/63 18/31/27
f 9/73/51 153/84/64 14/33/28
f 153/84/64 12/30/26 14/33/28
f 55/85/65 56/86/66 57/87/67
f 222/88/68 52/89/69 220/90/70
f 221/91/71 55/85/65 223/92/72
f 57/87/67 52/89/69 54/93/73
f 62/94/74 202/95/75 203/96/76
f 205/97/77 65/98/78 204/99/79
f 62/94/74 60/100/80 61/101/81
f 58/102/82 62/94/74 59/103/83
f 59/103/83 203/96/76 201/104/84
f 66/105/85 64/106/86 65/98/78
f 61/101/81 67/107/87 66/105/85
f 61/101/81 205/97/77 202/95/75
f 68/108/88 64/106/86 69/109/89
f 206/110/90 65/98/78 68/108/88
f 200/111/91 64/106/86 198/112/92
f 196/113/93 67/107/87 60/100/80
f 67/107/87 198/112/92 64/106/86
f 195/114/94 63/115/95 58/102/82
f 197/116/96 60/100/80 63/115/95
f 2/117/97 139/118/10 1/119/2
f 230/120/98 55/121/65 57/122/67
f 230/120/98 54/123/73 222/124/68
f 52/125/69 231/126/99 220/127/70
f 53/128/100 231/126/99 56/129/66
f 86/130/14 85/131/101 87/132/102
f 86/130/14 83/133/103 82/134/104
f 88/2/105 93/1/106 92/3/107
f 94/5/108 141/4/4 146/6/6
f 93/1/106 140/7/7 143/8/8
f 95/9/109 143/8/8 145/10/8
f 139/11/10 92/3/107 144/15/13
f 92/3/107 95/9/109 94/5/108
f 94/5/108 91/12/110 90/13/111
f 91/12/110 145/10/8 142/14/8
f 144/15/13 94/5/108 146/6/6
f 98/17/112 123/16/113 126/18/114
f 148/19/17 98/17/112 149/22/19
f 166/21/8 98/17/112 126/18/114
f 168/23/20 119/24/115 128/60/116
f 152/26/23 100/27/117 102/34/118
f 106/29/113 99/30/119 101/33/120
f 103/32/113 101/33/120 96/73/121
f 148/19/17 102/34/118 97/20/122
f 118/35/113 103/32/113 116/36/113
f 117/37/123 106/29/113 118/35/113
f 155/38/8 91/12/110 142/14/8
f 91/12/110 103/32/113 96/73/121
f 125/40/113 108/41/124 109/43/113
f 123/16/113 109/43/113 107/52/113
f 157/45/8 111/44/114 158/46/8
f 110/48/114 112/47/113 111/44/114
f 115/49/114 112/47/113 116/36/113
f 158/46/8 115/49/114 161/50/8
f 109/43/113 113/51/125 114/53/113
f 107/52/113 114/53/113 112/47/113
f 161/50/8 104/39/114 155/38/8
f 104/39/114 116/36/113 103/32/113
f 113/51/125 118/35/113 114/53/113
f 114/53/113 116/36/113 112/47/113
f 130/54/113 120/55/126 129/61/127
f 162/25/22 121/57/128 119/24/115
f 127/56/113 122/59/129 120/55/126
f 119/24/115 122/59/129 127/56/113
f 128/60/116 127/56/113 130/54/113
f 97/20/122 125/40/113 123/16/113
f 102/34/118 124/42/113 125/40/113
f 166/21/8 110/48/114 157/45/8
f 126/18/114 107/52/113 110/48/114
f 100/27/117 130/54/113 124/42/113
f 124/42/113 129/61/127 108/41/124
f 151/28/25 128/60/116 100/27/117
f 138/62/130 137/75/131 134/71/132
f 172/65/43 136/66/133 133/64/134
f 121/57/128 132/68/135 122/59/129
f 164/58/36 131/69/136 121/57/128
f 131/69/136 134/71/132 132/68/135
f 170/70/48 133/64/134 131/69/136
f 90/13/111 147/72/50 141/4/4
f 90/13/111 91/12/110 96/73/121
f 175/74/52 137/75/131 138/62/130
f 135/63/137 175/74/52 138/62/130
f 136/66/133 173/77/55 135/63/137
f 105/31/138 160/78/56 154/83/63
f 132/68/135 171/79/57 169/80/58
f 122/59/129 169/80/58 165/59/139
f 134/71/132 176/76/54 171/79/57
f 129/61/127 156/81/59 108/41/124
f 122/59/129 163/55/60 120/55/126
f 120/55/126 167/61/61 129/61/127
f 117/37/123 159/82/62 160/78/56
f 108/41/124 159/82/62 113/51/125
f 99/30/119 154/83/63 150/135/140
f 96/73/121 153/84/64 147/72/50
f 99/30/119 153/84/64 101/33/120
f 181/86/141 180/85/142 182/87/143
f 177/89/144 222/88/68 220/90/70
f 180/85/142 221/91/71 223/92/72
f 177/89/144 182/87/143 179/93/145
f 202/95/75 187/94/146 203/96/76
f 205/97/77 190/98/147 191/105/148
f 187/94/146 185/100/149 188/115/150
f 187/94/146 183/102/151 184/103/152
f 203/96/76 184/103/152 201/104/84
f 191/105/148 189/106/153 192/107/154
f 186/101/155 192/107/154 185/100/149
f 205/97/77 186/101/155 202/95/75
f 193/108/156 189/106/153 190/98/147
f 206/110/90 190/98/147 204/99/79
f 189/106/153 200/111/91 198/112/92
f 192/107/154 196/113/93 185/100/149
f 192/107/154 198/112/92 199/136/157
f 188/115/150 195/114/94 183/102/151
f 185/100/149 197/116/96 188/115/150
f 139/118/10 89/117/158 88/119/105
f 230/120/98 180/137/142 223/138/72
f 179/139/145 230/120/98 222/124/68
f 177/125/144 231/126/99 181/129/141
f 231/126/99 178/128/159 181/129/141
f 228/130/113 227/131/160 226/140/113
f 225/133/161 228/130/113 224/134/162
f 241/141/14 233/142/163 245/143/164
f 232/144/14 235/145/165 233/142/163
f 238/146/166 237/147/14 236/148/167
f 236/148/167 240/149/14 246/150/168
f 246/150/168 242/151/169 247/152/170
f 240/149/14 245/143/164 246/150/168
f 242/151/169 244/153/171 247/152/170
f 253/141/113 248/142/172 249/144/113
f 249/144/113 252/145/173 250/154/174
f 255/147/113 256/146/175 257/148/176
f 259/149/113 257/148/176 258/150/177
f 258/150/177 261/151/178 251/143/179
f 251/143/179 259/149/113 258/150/177
f 263/153/180 261/151/178 260/152/181
f 260/152/181 246/150/168 247/152/170
f 256/146/175 239/155/182 238/146/166
f 251/143/179 242/151/169 245/143/164
f 258/150/177 236/148/167 246/150/168
f 261/151/178 243/156/183 242/151/169
f 248/142/172 245/143/164 233/142/163
f 257/148/176 238/146/166 236/148/167
f 252/145/173 233/142/163 235/145/165
f 263/153/180 247/152/170 244/153/171
f 262/156/184 244/153/171 243/156/183
f 250/154/174 235/145/165 234/154/185
f 225/133/161 224/134/162 207/157/186
f 227/131/160 87/132/102 85/157/101
f 229/132/187 83/133/103 87/157/102
f 6/1/1 2/158/97 1/2/2
f 141/4/4 3/13/12 7/5/5
f 140/7/7 2/158/97 6/1/1
f 143/8/8 6/1/1 8/9/9
f 139/11/10 144/15/13 5/3/3
f 8/9/9 6/1/1 5/3/3
f 4/12/11 8/9/9 7/5/5
f 145/10/8 8/9/9 4/12/11
f 144/15/13 146/6/6 7/5/5
f 36/16/14 10/20/18 11/17/15
f 148/19/17 149/22/19 11/17/15
f 166/21/8 39/18/16 11/17/15
f 168/23/20 41/60/38 32/24/21
f 152/26/23 15/34/29 13/27/24
f 19/29/14 14/33/28 12/30/26
f 16/32/14 9/73/51 14/33/28
f 148/19/17 10/20/18 15/34/29
f 16/32/14 19/29/14 31/35/14
f 19/29/14 18/31/27 30/37/30
f 4/12/11 17/39/31 155/38/8
f 4/12/11 9/73/51 16/32/14
f 38/40/14 22/43/14 21/41/32
f 36/16/14 20/52/14 22/43/14
f 24/44/16 23/48/16 157/45/8
f 25/47/14 20/52/14 23/48/16
f 28/49/31 29/36/14 25/47/14
f 28/49/31 24/44/16 158/46/8
f 22/43/14 27/53/14 26/51/33
f 20/52/14 25/47/14 27/53/14
f 17/39/31 28/49/31 161/50/8
f 17/39/31 16/32/14 29/36/14
f 31/35/14 30/37/30 26/51/33
f 29/36/14 31/35/14 27/53/14
f 43/54/14 42/61/39 33/55/34
f 162/25/22 32/24/21 34/57/35
f 32/24/21 40/56/14 35/59/37
f 41/60/38 43/54/14 40/56/14
f 10/20/18 36/16/14 38/40/14
f 15/34/29 38/40/14 37/42/14
f 23/48/16 39/18/16 166/21/8
f 20/52/14 36/16/14 39/18/16
f 13/27/24 37/42/14 43/54/14
f 37/42/14 21/41/32 42/61/39
f 151/28/25 13/27/24 41/60/38
f 49/66/44 46/64/42 48/63/41
f 46/64/42 47/71/49 51/62/40
f 47/71/49 50/75/53 51/62/40
f 172/65/43 46/64/42 49/66/44
f 34/57/35 35/59/37 45/68/46
f 164/58/36 34/57/35 44/69/47
f 44/69/47 45/68/46 47/71/49
f 170/70/48 44/69/47 46/64/42
f 147/72/50 9/73/51 3/13/12
f 175/74/52 51/62/40 50/75/53
f 175/74/52 173/77/55 48/63/41
f 173/77/55 174/67/45 49/66/44
f 18/31/27 154/83/63 160/78/56
f 45/68/46 169/80/58 171/79/57
f 35/59/37 165/59/139 169/80/58
f 47/71/49 171/79/57 176/76/54
f 156/81/59 167/61/61 42/61/39
f 163/55/60 165/59/139 35/59/37
f 167/61/61 163/55/60 33/55/34
f 30/37/30 160/78/56 159/82/62
f 159/82/62 156/81/59 21/41/32
f 12/30/26 150/135/140 154/83/63
f 9/73/51 147/72/50 153/84/64
f 153/84/64 150/135/140 12/30/26
f 55/85/65 53/159/100 56/86/66
f 222/88/68 54/93/73 52/89/69
f 221/91/71 53/159/100 55/85/65
f 57/87/67 56/86/66 52/89/69
f 62/94/74 61/101/81 202/95/75
f 205/97/77 66/105/85 65/98/78
f 62/94/74 63/115/95 60/100/80
f 58/102/82 63/115/95 62/94/74
f 59/103/83 62/94/74 203/96/76
f 66/105/85 67/107/87 64/106/86
f 61/101/81 60/100/80 67/107/87
f 61/101/81 66/105/85 205/97/77
f 68/108/88 65/98/78 64/106/86
f 206/110/90 204/99/79 65/98/78
f 200/111/91 69/109/89 64/106/86
f 196/113/93 199/136/157 67/107/87
f 67/107/87 199/136/157 198/112/92
f 195/114/94 197/116/96 63/115/95
f 197/116/96 196/113/93 60/100/80
f 2/117/97 140/160/7 139/118/10
f 230/120/98 223/138/72 55/121/65
f 230/120/98 57/122/67 54/123/73
f 52/125/69 56/129/66 231/126/99
f 53/128/100 221/161/71 231/126/99
f 86/130/14 84/140/14 85/131/101
f 86/130/14 87/132/102 83/133/103
f 88/2/105 89/158/158 93/1/106
f 94/5/108 90/13/111 141/4/4
f 93/1/106 89/158/158 140/7/7
f 95/9/109 93/1/106 143/8/8
f 139/11/10 88/2/105 92/3/107
f 92/3/107 93/1/106 95/9/109
f 94/5/108 95/9/109 91/12/110
f 91/12/110 95/9/109 145/10/8
f 144/15/13 92/3/107 94/5/108
f 98/17/112 97/20/122 123/16/113
f 148/19/17 97/20/122 98/17/112
f 166/21/8 149/22/19 98/17/112
f 168/23/20 162/25/22 119/24/115
f 152/26/23 151/28/25 100/27/117
f 106/29/113 105/31/138 99/30/119
f 103/32/113 106/29/113 101/33/120
f 148/19/17 152/26/23 102/34/118
f 118/35/113 106/29/113 103/32/113
f 117/37/123 105/31/138 106/29/113
f 155/38/8 104/39/114 91/12/110
f 91/12/110 104/39/114 103/32/113
f 125/40/113 124/42/113 108/41/124
f 123/16/113 125/40/113 109/43/113
f 157/45/8 110/48/114 111/44/114
f 110/48/114 107/52/113 112/47/113
f 115/49/114 111/44/114 112/47/113
f 158/46/8 111/44/114 115/49/114
f 109/43/113 108/41/124 113/51/125
f 107/52/113 109/43/113 114/53/113
f 161/50/8 115/49/114 104/39/114
f 104/39/114 115/49/114 116/36/113
f 113/51/125 117/37/123 118/35/113
f 114/53/113 118/35/113 116/36/113
f 130/54/113 127/56/113 120/55/126
f 162/25/22 164/58/36 121/57/128
f 119/24/115 121/57/128 122/59/129
f 128/60/116 119/24/115 127/56/113
f 97/20/122 102/34/118 125/40/113
f 102/34/118 100/27/117 124/42/113
f 166/21/8 126/18/114 110/48/114
f 126/18/114 123/16/113 107/52/113
f 100/27/117 128/60/116 130/54/113
f 124/42/113 130/54/113 129/61/127
f 151/28/25 168/23/20 128/60/116
f 134/71/132 133/64/134 138/62/130
f 133/64/134 136/66/133 135/63/137
f 138/62/130 133/64/134 135/63/137
f 172/65/43 174/67/45 136/66/133
f 121/57/128 131/69/136 132/68/135
f 164/58/36 170/70/48 131/69/136
f 131/69/136 133/64/134 134/71/132
f 170/70/48 172/65/43 133/64/134
f 90/13/111 96/73/121 147/72/50
f 175/74/52 176/76/54 137/75/131
f 135/63/137 173/77/55 175/74/52
f 136/66/133 174/67/45 173/77/55
f 105/31/138 117/37/123 160/78/56
f 132/68/135 134/71/132 171/79/57
f 122/59/129 132/68/135 169/80/58
f 134/71/132 137/75/131 176/76/54
f 129/61/127 167/61/61 156/81/59
f 122/59/129 165/59/139 163/55/60
f 120/55/126 163/55/60 167/61/61
f 117/37/123 113/51/125 159/82/62
f 108/41/124 156/81/59 159/82/62
f 99/30/119 105/31/138 154/83/63
f 96/73/121 101/33/120 153/84/64
f 99/30/119 150/135/140 153/84/64
f 181/86/141 178/159/159 180/85/142
f 177/89/144 179/93/145 222/88/68
f 180/85/142 178/159/159 221/91/71
f 177/89/144 181/86/141 182/87/143
f 202/95/75 186/101/155 187/94/146
f 205/97/77 204/99/79 190/98/147
f 187/94/146 186/101/155 185/100/149
f 187/94/146 188/115/150 183/102/151
f 203/96/76 187/94/146 184/103/152
f 191/105/148 190/98/147 189/106/153
f 186/101/155 191/105/148 192/107/154
f 205/97/77 191/105/148 186/101/155
f 193/108/156 194/109/188 189/106/153
f 206/110/90 193/108/156 190/98/147
f 189/106/153 194/109/188 200/111/91
f 192/107/154 199/136/157 196/113/93
f 192/107/154 189/106/153 198/112/92
f 188/115/150 197/116/96 195/114/94
f 185/100/149 196/113/93 197/116/96
f 139/118/10 140/160/7 89/117/158
f 230/120/98 182/162/143 180/137/142
f 179/139/145 182/162/143 230/120/98
f 177/125/144 220/127/70 231/126/99
f 231/126/99 221/161/71 178/128/159
f 228/130/113 229/132/187 227/131/160
f 225/133/161 229/132/187 228/130/113
f 241/141/14 232/144/14 233/142/163
f 232/144/14 234/154/185 235/145/165
f 238/146/166 239/155/182 237/147/14
f 236/148/167 237/147/14 240/149/14
f 246/150/168 245/143/164 242/151/169
f 240/149/14 241/141/14 245/143/164
f 242/151/169 243/156/183 244/153/171
f 253/141/113 251/143/179 248/142/172
f 249/144/113 248/142/172 252/145/173
f 255/147/113 254/155/189 256/146/175
f 259/149/113 255/147/113 257/148/176
f 258/150/177 260/152/181 261/151/178
f 251/143/179 253/141/113 259/149/113
f 263/153/180 262/156/184 261/151/178
f 260/152/181 258/150/177 246/150/168
f 256/146/175 254/155/189 239/155/182
f 251/143/179 261/151/178 242/151/169
f 258/150/177 257/148/176 236/148/167
f 261/151/178 262/156/184 243/156/183
f 248/142/172 251/143/179 245/143/164
f 257/148/176 256/146/175 238/146/166
f 252/145/173 248/142/172 233/142/163
f 263/153/180 260/152/181 247/152/170
f 262/156/184 263/153/180 244/153/171
f 250/154/174 252/145/173 235/145/165
f 207/157/186 82/134/104 83/133/103
f 83/133/103 225/133/161 207/157/186
f 227/131/160 229/132/187 87/132/102
f 229/132/187 225/133/161 83/133/103
usemtl Gun_NONE
f 210/163/190 73/164/191 72/163/192
f 211/164/193 70/165/194 73/164/191
f 208/165/195 77/166/196 70/165/194
f 214/167/197 72/163/192 76/167/198
f 216/168/199 71/169/200 78/168/201
f 209/169/202 75/170/203 71/169/200
f 74/171/204 73/172/191 75/173/203
f 212/174/205 81/175/206 74/174/204
f 213/170/207 74/174/204 75/170/203
f 218/176/208 79/177/209 80/176/210
f 217/177/211 76/167/198 79/177/209
f 73/172/191 71/178/200 75/173/203
f 79/179/209 81/180/206 80/181/210
f 70/182/194 78/183/201 71/178/200
f 81/180/206 72/184/192 74/171/204
f 212/171/205 211/172/193 210/184/190
f 209/178/202 211/172/193 213/173/207
f 219/180/212 217/179/211 218/181/208
f 216/183/199 208/182/195 209/178/202
f 219/180/212 210/184/190 214/185/197
f 219/175/212 80/176/210 81/175/206
f 210/163/190 211/164/193 73/164/191
f 211/164/193 208/165/195 70/165/194
f 208/165/195 215/166/213 77/166/196
f 214/167/197 210/163/190 72/163/192
f 216/168/199 209/169/202 71/169/200
f 209/169/202 213/170/207 75/170/203
f 74/171/204 72/184/192 73/172/191
f 212/174/205 219/175/212 81/175/206
f 213/170/207 212/174/205 74/174/204
f 218/176/208 217/177/211 79/177/209
f 217/177/211 214/167/197 76/167/198
f 73/172/191 70/182/194 71/178/200
f 79/179/209 76/185/198 81/180/206
f 70/182/194 77/186/196 78/183/201
f 81/180/206 76/185/198 72/184/192
f 212/171/205 213/173/207 211/172/193
f 209/178/202 208/182/195 211/172/193
f 219/180/212 214/185/197 217/179/211
f 216/183/199 215/186/213 208/182/195
f 219/180/212 212/171/205 210/184/190
f 219/175/212 218/176/208 80/176/210
